<?xml version="1.0" encoding="utf-8"?>
<!-- Generator: Adobe Illustrator 28.3.0, SVG Export Plug-In . SVG Version: 6.00 Build 0)  -->
<svg version="1.1" id="Layer_1" xmlns="http://www.w3.org/2000/svg" xmlns:xlink="http://www.w3.org/1999/xlink" x="0px" y="0px"
	 viewBox="0 0 210 210" style="enable-background:new 0 0 210 210;" xml:space="preserve">
<style type="text/css">
	.st0{fill-rule:evenodd;clip-rule:evenodd;}
</style>
<path class="st0" d="M206.398,30.4C201.996,18,192.192,8.2,179.786,3.7C168.48,0,158.075,0,136.865,0h-63.73
	c-21.01,0-31.515,0-42.82,3.5C17.909,8,8.104,17.8,3.602,30.2C0,41.6,0,52.1,0,73.2v63.6c0,21.2,0,31.6,3.502,42.9
	c4.502,12.4,14.307,22.2,26.713,26.7c11.405,3.6,21.91,3.6,42.92,3.6h63.63c21.11,0,31.615,0,42.92-3.6
	c12.406-4.5,22.211-14.3,26.713-26.7C210,168.3,210,157.8,210,136.8V73.3C210,52.2,210,41.7,206.398,30.4z M151.472,71.9
	l-12.106,9.9c-1.101,0.9-2.601,0.7-3.402-0.4c-6.203-7.6-15.807-11.9-26.312-11.9c-11.706,0-19.009,5.1-19.009,12.3
	c-0.2,6,5.503,9.2,23.011,13c22.111,4.7,32.215,13.9,32.215,29.4c0,19.4-15.808,33.7-40.519,35.3l-2.401,11.5
	c-0.2,1.1-1.201,1.9-2.401,1.9H81.539c-1.601,0-2.701-1.5-2.401-3l3.001-12.8c-12.206-3.5-22.111-10.3-27.813-18.6
	c-0.7-1.1-0.5-2.5,0.5-3.3l13.206-10.3c1.101-0.9,2.701-0.6,3.502,0.5c7.003,9.8,17.808,15.6,30.815,15.6
	c11.706,0,20.51-5.7,20.51-13.9c0-6.3-4.402-9.2-19.309-12.3c-25.412-5.5-35.517-14.9-35.517-30.4c0-18,15.107-31.5,37.918-33.3
	l2.501-11.9c0.2-1.1,1.201-1.9,2.401-1.9h18.709c1.501,0,2.701,1.4,2.401,2.9l-2.901,13.3c9.805,3,17.808,8.4,22.811,15.1
	C152.673,69.6,152.473,71.1,151.472,71.9z"/>
</svg>
